<svg width="18" height="18" viewBox="0 0 18 18" fill="none" xmlns="http://www.w3.org/2000/svg">
<path d="M2.80654 15.4163C3.70654 16.5 5.38054 16.5 8.73004 16.5H9.27004C12.6195 16.5 14.2943 16.5 15.1943 15.4163M2.80654 15.4163C1.90654 14.3318 2.21554 12.6863 2.83279 9.39375C3.27154 7.05375 3.49054 5.883 4.32379 5.1915M15.1943 15.4163C16.0943 14.3318 15.7853 12.6863 15.168 9.39375C14.7293 7.05375 14.5095 5.883 13.6763 5.1915M13.6763 5.1915C12.8438 4.5 11.652 4.5 9.27079 4.5H8.72929C6.34804 4.5 5.15704 4.5 4.32379 5.1915" stroke="white" stroke-width="1.5"/>
<path d="M11.25 8.25L12 12.75M6.75 8.25L6 12.75M6.75 4.5V3.75C6.75 3.15326 6.98705 2.58097 7.40901 2.15901C7.83097 1.73705 8.40326 1.5 9 1.5C9.59674 1.5 10.169 1.73705 10.591 2.15901C11.0129 2.58097 11.25 3.15326 11.25 3.75V4.5" stroke="white" stroke-width="1.5" stroke-linecap="round"/>
</svg>
