<svg width="34" height="36" viewBox="0 0 34 36" fill="none" xmlns="http://www.w3.org/2000/svg">
<path fill-rule="evenodd" clip-rule="evenodd" d="M10.2511 2.22055C10.7786 1.10892 11.9166 0.336426 13.2317 0.336426H20.7683C22.0834 0.336426 23.2195 1.10892 23.7489 2.22055C25.0358 2.23186 26.0401 2.29027 26.9369 2.64072C28.0075 3.0595 28.9386 3.77122 29.6237 4.69442C30.3151 5.62518 30.6411 6.81783 31.0857 8.45891L32.4838 13.5875L33.0113 15.1721L33.0565 15.2286C34.7541 17.4029 33.9459 20.636 32.3293 27.1005C31.3005 31.2135 30.7881 33.2691 29.2544 34.4674C27.7207 35.6638 25.601 35.6638 21.3618 35.6638H12.6382C8.39895 35.6638 6.27931 35.6638 4.74563 34.4674C3.21195 33.2691 2.69758 31.2135 1.67073 27.1005C0.0541458 20.636 -0.754146 17.4029 0.943454 15.2286L0.988674 15.1721L1.51623 13.5875L2.91425 8.45891C3.36079 6.81783 3.68675 5.62329 4.37634 4.69253C5.06165 3.77003 5.99272 3.05899 7.0631 2.64072C7.95995 2.29027 8.96231 2.22998 10.2511 2.22055ZM10.2548 5.0524C9.00753 5.06559 8.50635 5.11269 8.09184 5.27473C7.51523 5.50022 7.01376 5.88351 6.64483 6.38071C6.31322 6.82725 6.11727 7.4509 5.57087 9.46126L4.49692 13.3972C6.41873 13.0543 9.04521 13.0543 12.6364 13.0543H21.3618C24.9548 13.0543 27.5794 13.0543 29.5012 13.3934L28.4291 9.45749C27.8827 7.44713 27.6868 6.82348 27.3552 6.37694C26.9862 5.87974 26.4848 5.49645 25.9082 5.27096C25.4937 5.10892 24.9925 5.06182 23.7452 5.04863C23.4777 5.6117 23.056 6.08739 22.5291 6.42054C22.0022 6.75369 21.3916 6.93064 20.7683 6.93088H13.2317C12.6086 6.93081 11.9981 6.75414 11.4713 6.42134C10.9444 6.08853 10.5226 5.61511 10.2548 5.0524Z" fill="black"/>
</svg>
