<svg width="14" height="24" viewBox="0 0 14 24" fill="none" xmlns="http://www.w3.org/2000/svg">
<path d="M14 24H0V0H14V24Z" stroke="#E5E7EB"/>
<g clip-path="url(#clip0_966_513)">
<path d="M6.99998 4C7.5531 4 7.99998 4.44687 7.99998 5V5.94062L8.46873 5.47187C8.76248 5.17812 9.23748 5.17812 9.5281 5.47187C9.81873 5.76562 9.82185 6.24062 9.5281 6.53125L7.99685 8.0625V10.2594L9.9156 9.14062L10.4687 7.075C10.575 6.675 10.9875 6.4375 11.3875 6.54375C11.7875 6.65 12.025 7.0625 11.9187 7.4625L11.7562 8.06563L12.4937 7.63438C12.9719 7.35625 13.5844 7.51875 13.8625 7.99375C14.1406 8.46875 13.9812 9.08438 13.5031 9.3625L12.7125 9.825L13.3906 10.0062C13.7906 10.1125 14.0281 10.525 13.9219 10.925C13.8156 11.325 13.4031 11.5625 13.0031 11.4563L10.8875 10.8906L8.98435 12L10.8875 13.1094L13.0031 12.5437C13.4031 12.4375 13.8156 12.675 13.9219 13.075C14.0281 13.475 13.7906 13.8875 13.3906 13.9937L12.7125 14.175L13.5031 14.6375C13.9812 14.9156 14.1406 15.5281 13.8625 16.0063C13.5844 16.4844 12.9719 16.6438 12.4937 16.3656L11.7562 15.9344L11.9187 16.5375C12.025 16.9375 11.7875 17.35 11.3875 17.4563C10.9875 17.5625 10.575 17.325 10.4687 16.925L9.9156 14.8594L7.99998 13.7406V15.9375L9.53123 17.4688C9.82498 17.7625 9.82498 18.2375 9.53123 18.5281C9.23748 18.8187 8.76248 18.8219 8.47185 18.5281L8.0031 18.0594V19C8.0031 19.5531 7.55623 20 7.0031 20C6.44998 20 6.0031 19.5531 6.0031 19V18.0594L5.53435 18.5281C5.2406 18.8219 4.7656 18.8219 4.47498 18.5281C4.18435 18.2344 4.18123 17.7594 4.47498 17.4688L6.00623 15.9375V13.7406L4.08748 14.8594L3.53435 16.925C3.4281 17.325 3.0156 17.5625 2.6156 17.4563C2.2156 17.35 1.9781 16.9375 2.08435 16.5375L2.24685 15.9344L1.5031 16.3625C1.02498 16.6406 0.412476 16.4781 0.134351 16.0031C-0.143774 15.5281 0.0187261 14.9125 0.493726 14.6344L1.28435 14.1719L0.606226 13.9906C0.206226 13.8844 -0.031274 13.4719 0.074976 13.0719C0.181226 12.6719 0.593726 12.4344 0.993726 12.5406L3.10935 13.1062L5.0156 12L3.11248 10.8906L0.996851 11.4563C0.596851 11.5625 0.184351 11.325 0.078101 10.925C-0.028149 10.525 0.209351 10.1125 0.609351 10.0062L1.28748 9.825L0.496851 9.3625C0.018726 9.08438 -0.140649 8.47188 0.137476 7.99688C0.415601 7.52188 1.0281 7.35938 1.50623 7.6375L2.24373 8.06875L2.08123 7.46563C1.97498 7.06563 2.21248 6.65313 2.61248 6.54688C3.01248 6.44062 3.42498 6.67812 3.53123 7.07812L4.08435 9.14375L5.99998 10.2594V8.05937L4.46873 6.53125C4.17498 6.2375 4.17498 5.7625 4.46873 5.47187C4.76248 5.18125 5.23748 5.17812 5.5281 5.47187L5.99685 5.94062V5C5.99685 4.44687 6.44373 4 6.99685 4H6.99998Z" fill="#3B82F6"/>
</g>
<defs>
<clipPath id="clip0_966_513">
<path d="M0 4H14V20H0V4Z" fill="white"/>
</clipPath>
</defs>
</svg>
