<svg width="14" height="24" viewBox="0 0 14 24" fill="none" xmlns="http://www.w3.org/2000/svg">
<path d="M14 24H0V0H14V24Z" stroke="#E5E7EB"/>
<g clip-path="url(#clip0_966_508)">
<path d="M4.97813 4.16881C5.22188 3.94068 5.6 3.94381 5.84375 4.17193C6.70625 4.98131 7.51563 5.85318 8.27188 6.79693C8.61563 6.34693 9.00625 5.85631 9.42813 5.45631C9.675 5.22506 10.0563 5.22506 10.3031 5.45943C11.3844 6.49068 12.3 7.85318 12.9438 9.14693C13.5781 10.4219 14 11.7251 14 12.6438C14 16.6313 10.8812 20.0001 7 20.0001C3.075 20.0001 0 16.6282 0 12.6407C0 11.4407 0.55625 9.97506 1.41875 8.52506C2.29063 7.05318 3.52188 5.51881 4.97813 4.16881ZM7.05312 17.0001C7.84375 17.0001 8.54375 16.7813 9.20312 16.3438C10.5187 15.4251 10.8719 13.5876 10.0813 12.1438C9.94063 11.8626 9.58125 11.8438 9.37813 12.0813L8.59062 12.9969C8.38437 13.2344 8.0125 13.2282 7.81875 12.9813C7.30312 12.3251 6.38125 11.1532 5.85625 10.4876C5.65937 10.2376 5.28437 10.2344 5.08437 10.4844C4.02812 11.8126 3.49688 12.6501 3.49688 13.5907C3.5 15.7313 5.08125 17.0001 7.05312 17.0001Z" fill="#F97316"/>
</g>
<defs>
<clipPath id="clip0_966_508">
<path d="M0 4H14V20H0V4Z" fill="white"/>
</clipPath>
</defs>
</svg>
