<svg width="80" height="80" viewBox="0 0 80 80" fill="none" xmlns="http://www.w3.org/2000/svg">
<path d="M64 0C72.8366 0 80 7.16344 80 16V64C80 72.8366 72.8366 80 64 80H16C7.16344 80 0 72.8366 0 64V16C0 7.16344 7.16344 0 16 0H64Z" fill="#F0E6D6"/>
<path d="M64 0C72.8366 0 80 7.16344 80 16V64C80 72.8366 72.8366 80 64 80H16C7.16344 80 0 72.8366 0 64V16C0 7.16344 7.16344 0 16 0H64Z" stroke="#E5E7EB"/>
<path d="M55 58H25V22H55V58Z" stroke="#E5E7EB"/>
<path d="M55 53.75H25V23.75H55V53.75Z" stroke="#E5E7EB"/>
<path d="M27.7891 41.3515L38.377 51.2363C38.8164 51.6464 39.3965 51.8749 40 51.8749C40.6035 51.8749 41.1836 51.6464 41.623 51.2363L52.2109 41.3515C53.9922 39.6933 55 37.3671 55 34.9355V34.5957C55 30.4999 52.041 27.0078 48.0039 26.3339C45.332 25.8886 42.6133 26.7617 40.7031 28.6718L40 29.3749L39.2969 28.6718C37.3867 26.7617 34.668 25.8886 31.9961 26.3339C27.959 27.0078 25 30.4999 25 34.5957V34.9355C25 37.3671 26.0078 39.6933 27.7891 41.3515Z" fill="#5A3E2C"/>
</svg>
