<svg width="80" height="80" viewBox="0 0 80 80" fill="none" xmlns="http://www.w3.org/2000/svg">
<path d="M64 0C72.8366 0 80 7.16344 80 16V64C80 72.8366 72.8366 80 64 80H16C7.16344 80 0 72.8366 0 64V16C0 7.16344 7.16344 0 16 0H64Z" fill="#F0E6D6"/>
<path d="M64 0C72.8366 0 80 7.16344 80 16V64C80 72.8366 72.8366 80 64 80H16C7.16344 80 0 72.8366 0 64V16C0 7.16344 7.16344 0 16 0H64Z" stroke="#E5E7EB"/>
<path d="M55 58H25V22H55V58Z" stroke="#E5E7EB"/>
<path d="M55 53.75H25V23.75H55V53.75Z" stroke="#E5E7EB"/>
<path d="M40.9375 29.375C36.332 29.375 32.4355 32.3926 31.1113 36.5528C33.0801 35.5567 35.3008 35 37.6562 35H42.8125C43.3281 35 43.75 35.4219 43.75 35.9375C43.75 36.4531 43.3281 36.875 42.8125 36.875H41.875H37.6562C36.6836 36.875 35.7402 36.9863 34.832 37.1914C33.3145 37.5371 31.9023 38.1524 30.6484 38.9903C27.2441 41.2578 25 45.1309 25 49.5313V50.4688C25 51.2481 25.627 51.875 26.4062 51.875C27.1855 51.875 27.8125 51.2481 27.8125 50.4688V49.5313C27.8125 46.6778 29.0254 44.1113 30.9648 42.3125C32.125 46.7363 36.1504 50 40.9375 50H40.9961C48.7363 49.959 55 42.3301 55 32.9258C55 30.4297 54.5605 28.0567 53.7637 25.918C53.6113 25.5137 53.0195 25.5313 52.8145 25.9121C51.7129 27.9746 49.5332 29.375 47.0312 29.375H40.9375Z" fill="#5A3E2C"/>
</svg>
