<svg width="44" height="44" viewBox="0 0 44 44" fill="none" xmlns="http://www.w3.org/2000/svg">
<path fill-rule="evenodd" clip-rule="evenodd" d="M22 44C9.8494 44 0 34.1506 0 22C0 9.8494 9.8494 0 22 0C34.1506 0 44 9.8494 44 22C44 34.1506 34.1506 44 22 44ZM22 41.36C27.1346 41.36 32.0589 39.3203 35.6896 35.6896C39.3203 32.0589 41.36 27.1346 41.36 22C41.36 16.8654 39.3203 11.9411 35.6896 8.31041C32.0589 4.67971 27.1346 2.64 22 2.64C16.8654 2.64 11.9411 4.67971 8.31041 8.31041C4.67971 11.9411 2.64 16.8654 2.64 22C2.64 27.1346 4.67971 32.0589 8.31041 35.6896C11.9411 39.3203 16.8654 41.36 22 41.36ZM19.5 27L32 14.5L34.067 16.7178L20.977 29.8078C20.5644 30.2202 20.005 30.4519 19.4216 30.4519C18.8382 30.4519 18.2788 30.2202 17.8662 29.8078L11 22.9372L13 21L19.5 27Z" fill="#57C262"/>
</svg>
