<svg width="46" height="46" viewBox="0 0 46 46" fill="none" xmlns="http://www.w3.org/2000/svg">
<circle cx="23" cy="23" r="23" fill="#D9D9D9"/>
<path d="M16.4471 30.2075C15.211 30.7684 13.8922 31.1254 12.5419 31.2645C12.4527 31.2738 12.3628 31.2569 12.2831 31.2159C12.2033 31.1749 12.1373 31.1116 12.0929 31.0337C11.0924 29.2704 10.7635 27.0767 11.1697 24.6695C11.6879 21.5629 13.3728 18.4529 15.9151 15.9106C18.4574 13.3684 21.5698 11.6836 24.6742 11.1654C27.3042 10.7281 29.6792 11.1654 31.5164 12.3887C31.5916 12.438 31.6507 12.5083 31.6865 12.5908C31.7223 12.6733 31.7332 12.7645 31.7179 12.8531C31.7025 12.9418 31.6617 13.024 31.6002 13.0897C31.5388 13.1554 31.4595 13.2017 31.3722 13.223C30.5073 13.4291 29.6641 13.7174 28.8541 14.0839C26.3417 15.2263 23.1301 17.6682 22.1007 22.8196C21.3956 26.3139 19.4949 28.7996 16.4471 30.2075ZM33.9064 14.9644C33.8621 14.8867 33.7963 14.8235 33.7168 14.7825C33.6373 14.7415 33.5476 14.7245 33.4586 14.7336C32.1078 14.8718 30.7884 15.2288 29.5522 15.7906C26.5045 17.1985 24.6038 19.6842 23.9044 23.1762C22.8739 28.3276 19.6634 30.7695 17.1511 31.9119C16.341 32.2784 15.4978 32.5666 14.633 32.7728C14.5436 32.793 14.4623 32.8392 14.3993 32.9058C14.3363 32.9723 14.2946 33.0561 14.2793 33.1464C14.2641 33.2367 14.2761 33.3295 14.3138 33.413C14.3515 33.4965 14.4132 33.5669 14.491 33.6152C15.8608 34.5292 17.5284 35 19.3783 35C20.0326 34.9981 20.6857 34.9425 21.3309 34.8338C24.4364 34.3157 27.5477 32.6309 30.09 30.0886C32.6324 27.5464 34.3172 24.434 34.8354 21.3298C35.2324 18.9226 34.9069 16.7277 33.9064 14.9644Z" fill="black"/>
</svg>
